{
  "source": "C:\\Users\\Peter\\Desktop\\stuff\\MIUN\\quantitative_research\\video_compression\\videos\\BVI-HD\\BVI-HD_CDVL_videos\\ORIG\\Grass_1920x1080_60fps.mp4",
  "output": "C:\\Users\\Peter\\Desktop\\stuff\\MIUN\\quantitative_research\\video_compression\\compressed_videos\\BVI-HD\\av1\\2\\Grass_1920x1080_60fps_av1.mkv",
  "codec": "av1",
  "ok": "Input #0, mov,mp4,m4a,3gp,3g2,mj2, from 'C:\\Users\\Peter\\Desktop\\stuff\\MIUN\\quantitative_research\\video_compression\\videos\\BVI-HD\\BVI-HD_CDVL_videos\\ORIG\\Grass_1920x1080_60fps.mp4':\n  Metadata:\n    major_brand     : isom\n    minor_version   : 512\n    compatible_brands: isomiso2avc1mp41\n    encoder         : Lavf54.28.101\n  Duration: 00:00:05.00, start: 0.000000, bitrate: 655968 kb/s\n  Stream #0:0[0x1](und): Video: h264 (High 4:4:4 Predictive) (avc1 / 0x31637661), yuv420p(progressive), 1920x1080, 655963 kb/s, 60 fps, 60 tbr, 60 tbn (default)\n    Metadata:\n      handler_name    : VideoHandler\n      vendor_id       : [0][0][0][0]\n[out#0/matroska @ 0000027dc4dd9180] Codec AVOption b:a (set bitrate (in bits/s)) has not been used for any stream. The most likely reason is either wrong type (e.g. a video option with no video streams) or that it is a private option of some decoder which was not actually used for any stream.\nStream mapping:\n  Stream #0:0 -> #0:0 (h264 (native) -> av1 (libsvtav1))\nPress [q] to stop, [?] for help\nSvt[info]: -------------------------------------------\nSvt[info]: SVT [version]:\tSVT-AV1 Encoder Lib v3.1.0-19-g6ecfe8ec\nSvt[info]: SVT [build]  :\tGCC 15.2.0\t 64 bit\nSvt[info]: LIB Build date: Aug 17 2025 11:37:13\nSvt[info]: -------------------------------------------\nSvt[info]: Level of Parallelism: 5\nSvt[info]: Number of PPCS 93\nSvt[info]: [asm level on system : up to avx2]\nSvt[info]: [asm level selected : up to avx2]\nSvt[info]: -------------------------------------------\nSvt[info]: SVT [config]: main profile\ttier (auto)\tlevel (auto)\nSvt[info]: SVT [config]: width / height / fps numerator / fps denominator \t\t: 1920 / 1080 / 60 / 1\nSvt[info]: SVT [config]: bit-depth / color format \t\t\t\t\t: 8 / YUV420\nSvt[info]: SVT [config]: preset / tune / pred struct \t\t\t\t\t: 4 / PSNR / random access\nSvt[info]: SVT [config]: gop size / mini-gop size / key-frame type \t\t\t: 321 / 16 / key frame\nSvt[info]: SVT [config]: BRC mode / target bitrate (kbps)\t\t\t\t: VBR / 2000 \nSvt[info]: SVT [config]: AQ mode / Variance Boost \t\t\t\t\t: 2 / 0\nSvt[info]: SVT [config]: sharpness / luminance-based QP bias \t\t\t\t: 0 / 0\nSvt[info]: SVT [config]: QP scale compress strength \t\t\t\t\t: 0\nSvt[info]: -------------------------------------------\nOutput #0, matroska, to 'C:\\Users\\Peter\\Desktop\\stuff\\MIUN\\quantitative_research\\video_compression\\compressed_videos\\BVI-HD\\av1\\2\\Grass_1920x1080_60fps_av1.mkv':\n  Metadata:\n    major_brand     : isom\n    minor_version   : 512\n    compatible_brands: isomiso2avc1mp41\n    encoder         : Lavf62.3.100\n  Stream #0:0(und): Video: av1 (AV01 / 0x31305641), yuv420p(tv, progressive), 1920x1080, q=2-31, 2000 kb/s, 60 fps, 1k tbn (default)\n    Metadata:\n      encoder         : Lavc62.11.100 libsvtav1\n      handler_name    : VideoHandler\n      vendor_id       : [0][0][0][0]\n    Side data:\n      cpb: bitrate max/min/avg: 0/0/2000000 buffer size: 2000000 vbv_delay: N/A\nframe=    0 fps=0.0 q=0.0 size=       0KiB time=N/A bitrate=N/A speed=N/A elapsed=0:00:01.04    \nframe=    0 fps=0.0 q=0.0 size=       0KiB time=N/A bitrate=N/A speed=N/A elapsed=0:00:01.70    \nframe=    0 fps=0.0 q=0.0 size=       0KiB time=N/A bitrate=N/A speed=N/A elapsed=0:00:02.25    \nframe=    0 fps=0.0 q=0.0 size=       0KiB time=N/A bitrate=N/A speed=N/A elapsed=0:00:02.83    \nframe=    0 fps=0.0 q=0.0 size=       0KiB time=N/A bitrate=N/A speed=N/A elapsed=0:00:03.39    \nframe=    0 fps=0.0 q=0.0 size=       0KiB time=N/A bitrate=N/A speed=N/A elapsed=0:00:03.92    \nframe=    0 fps=0.0 q=0.0 size=       0KiB time=N/A bitrate=N/A speed=N/A elapsed=0:00:04.45    \nframe=    0 fps=0.0 q=0.0 size=       0KiB time=N/A bitrate=N/A speed=N/A elapsed=0:00:04.96    \nframe=    0 fps=0.0 q=0.0 size=       0KiB time=N/A bitrate=N/A speed=N/A elapsed=0:00:05.48    \nframe=    0 fps=0.0 q=0.0 size=       0KiB time=N/A bitrate=N/A speed=N/A elapsed=0:00:06.00    \nframe=    0 fps=0.0 q=0.0 size=       0KiB time=N/A bitrate=N/A speed=N/A elapsed=0:00:06.54    \nframe=    0 fps=0.0 q=0.0 size=       0KiB time=N/A bitrate=N/A speed=N/A elapsed=0:00:07.06    \nframe=    1 fps=0.1 q=25.0 size=       1KiB time=00:00:00.00 bitrate=N/A speed=   0x elapsed=0:00:07.58    \nframe=    1 fps=0.1 q=25.0 size=       1KiB time=00:00:00.00 bitrate=N/A speed=   0x elapsed=0:00:08.10    \nframe=    3 fps=0.3 q=54.0 size=       1KiB time=00:00:00.03 bitrate= 170.9kbits/s speed=0.00386x elapsed=0:00:08.62    \nframe=   10 fps=1.1 q=55.0 size=       1KiB time=00:00:00.13 bitrate=  42.7kbits/s speed=0.0146x elapsed=0:00:09.15    \nframe=   13 fps=1.3 q=52.0 size=       1KiB time=00:00:00.20 bitrate=  28.5kbits/s speed=0.0205x elapsed=0:00:09.76    \nframe=   14 fps=1.4 q=55.0 size=       1KiB time=00:00:00.21 bitrate=  26.3kbits/s speed=0.0211x elapsed=0:00:10.28    \nframe=   21 fps=1.9 q=52.0 size=       1KiB time=00:00:00.33 bitrate=  17.1kbits/s speed=0.0308x elapsed=0:00:10.81    \nframe=   26 fps=2.3 q=55.0 size=       1KiB time=00:00:00.41 bitrate=  13.7kbits/s speed=0.0367x elapsed=0:00:11.34    \nframe=   29 fps=2.4 q=52.0 size=       1KiB time=00:00:00.46 bitrate=  12.2kbits/s speed=0.0393x elapsed=0:00:11.88    \nframe=   30 fps=2.4 q=55.0 size=       1KiB time=00:00:00.48 bitrate=  11.8kbits/s speed=0.039x elapsed=0:00:12.38    \nframe=   38 fps=2.9 q=55.0 size=       1KiB time=00:00:00.61 bitrate=   9.2kbits/s speed=0.0478x elapsed=0:00:12.91    \nframe=   45 fps=3.3 q=52.0 size=       1KiB time=00:00:00.70 bitrate=   8.1kbits/s speed=0.052x elapsed=0:00:13.46    \nframe=   46 fps=3.3 q=55.0 size=       1KiB time=00:00:00.75 bitrate=   7.6kbits/s speed=0.0534x elapsed=0:00:14.04    \nframe=   49 fps=3.4 q=39.0 size=       1KiB time=00:00:00.80 bitrate=   7.1kbits/s speed=0.0549x elapsed=0:00:14.56    \nframe=   54 fps=3.6 q=54.0 size=       1KiB time=00:00:00.88 bitrate=   6.4kbits/s speed=0.0586x elapsed=0:00:15.07    \nframe=   61 fps=3.9 q=51.0 size=       1KiB time=00:00:01.00 bitrate=   5.7kbits/s speed=0.0641x elapsed=0:00:15.59    \nframe=   62 fps=3.8 q=54.0 size=       1KiB time=00:00:01.01 bitrate=   5.6kbits/s speed=0.0631x elapsed=0:00:16.11    \nframe=   67 fps=4.0 q=53.0 size=       1KiB time=00:00:01.10 bitrate=   5.2kbits/s speed=0.0662x elapsed=0:00:16.62    \nframe=   73 fps=4.2 q=47.0 size=       1KiB time=00:00:01.20 bitrate=   4.7kbits/s speed=0.0698x elapsed=0:00:17.19    \nframe=   77 fps=4.3 q=51.0 size=       1KiB time=00:00:01.26 bitrate=   4.5kbits/s speed=0.0713x elapsed=0:00:17.76    \nframe=   79 fps=4.3 q=53.0 size=       1KiB time=00:00:01.28 bitrate=   4.4kbits/s speed=0.0702x elapsed=0:00:18.28    \nframe=   86 fps=4.6 q=54.0 size=       1KiB time=00:00:01.41 bitrate=   4.0kbits/s speed=0.0752x elapsed=0:00:18.83    \nframe=   93 fps=4.8 q=51.0 size=       1KiB time=00:00:01.53 bitrate=   3.7kbits/s speed=0.0792x elapsed=0:00:19.37    \nframe=   94 fps=4.7 q=54.0 size=       1KiB time=00:00:01.55 bitrate=   3.7kbits/s speed=0.0779x elapsed=0:00:19.89    \nframe=   99 fps=4.8 q=53.0 size=       1KiB time=00:00:01.63 bitrate=   3.5kbits/s speed=0.08x elapsed=0:00:20.41    \nframe=  106 fps=5.1 q=54.0 size=       1KiB time=00:00:01.75 bitrate=   3.3kbits/s speed=0.0835x elapsed=0:00:20.95    \nframe=  109 fps=5.1 q=51.0 size=       1KiB time=00:00:01.80 bitrate=   3.2kbits/s speed=0.0838x elapsed=0:00:21.47    \nframe=  110 fps=5.0 q=54.0 size=       1KiB time=00:00:01.81 bitrate=   3.1kbits/s speed=0.0827x elapsed=0:00:21.97    \nframe=  118 fps=5.2 q=53.0 size=       1KiB time=00:00:01.95 bitrate=   2.9kbits/s speed=0.0867x elapsed=0:00:22.50    \nframe=  125 fps=5.4 q=50.0 size=       1KiB time=00:00:02.06 bitrate=   2.8kbits/s speed=0.0897x elapsed=0:00:23.03    \nframe=  125 fps=5.3 q=50.0 size=       1KiB time=00:00:02.06 bitrate=   2.8kbits/s speed=0.0877x elapsed=0:00:23.56    \nframe=  126 fps=5.2 q=53.0 size=       1KiB time=00:00:02.08 bitrate=   2.7kbits/s speed=0.0865x elapsed=0:00:24.08    \nframe=  133 fps=5.4 q=50.0 size=       1KiB time=00:00:02.20 bitrate=   2.6kbits/s speed=0.0895x elapsed=0:00:24.59    \nframe=  140 fps=5.6 q=53.0 size=       1KiB time=00:00:02.30 bitrate=   2.5kbits/s speed=0.0916x elapsed=0:00:25.11    \nframe=  141 fps=5.5 q=50.0 size=       1KiB time=00:00:02.33 bitrate=   2.4kbits/s speed=0.091x elapsed=0:00:25.64    \nframe=  143 fps=5.5 q=52.0 size=       1KiB time=00:00:02.36 bitrate=   2.4kbits/s speed=0.0905x elapsed=0:00:26.15    \nframe=  151 fps=5.7 q=52.0 size=       1KiB time=00:00:02.50 bitrate=   2.3kbits/s speed=0.0937x elapsed=0:00:26.67    \nframe=  157 fps=5.8 q=50.0 size=       1KiB time=00:00:02.60 bitrate=   2.2kbits/s speed=0.0956x elapsed=0:00:27.20    \nframe=  158 fps=5.7 q=53.0 size=       1KiB time=00:00:02.61 bitrate=   2.2kbits/s speed=0.0944x elapsed=0:00:27.72    \nframe=  163 fps=5.8 q=52.0 size=       1KiB time=00:00:02.70 bitrate=   2.1kbits/s speed=0.0956x elapsed=0:00:28.23    \nframe=  170 fps=5.9 q=53.0 size=       1KiB time=00:00:02.80 bitrate=   2.0kbits/s speed=0.0974x elapsed=0:00:28.74    \nframe=  173 fps=5.9 q=50.0 size=       1KiB time=00:00:02.86 bitrate=   2.0kbits/s speed=0.0979x elapsed=0:00:29.28    \nframe=  175 fps=5.9 q=52.0 size=       1KiB time=00:00:02.90 bitrate=   2.0kbits/s speed=0.0973x elapsed=0:00:29.80    \nframe=  182 fps=6.0 q=53.0 size=       1KiB time=00:00:03.01 bitrate=   1.9kbits/s speed=0.0995x elapsed=0:00:30.32    \nframe=  189 fps=6.1 q=50.0 size=       1KiB time=00:00:03.13 bitrate=   1.8kbits/s speed=0.101x elapsed=0:00:30.88    \nframe=  190 fps=6.0 q=53.0 size=       1KiB time=00:00:03.15 bitrate=   1.8kbits/s speed= 0.1x elapsed=0:00:31.43    \nframe=  197 fps=6.2 q=50.0 size=       1KiB time=00:00:03.25 bitrate=   1.8kbits/s speed=0.102x elapsed=0:00:31.94    \nframe=  203 fps=6.3 q=52.0 size=       1KiB time=00:00:03.35 bitrate=   1.7kbits/s speed=0.103x elapsed=0:00:32.47    \nframe=  209 fps=6.3 q=38.0 size=       1KiB time=00:00:03.46 bitrate=   1.6kbits/s speed=0.105x elapsed=0:00:33.01    \nframe=  209 fps=6.2 q=38.0 size=       1KiB time=00:00:03.46 bitrate=   1.6kbits/s speed=0.103x elapsed=0:00:33.53    \nframe=  217 fps=6.4 q=45.0 size=       1KiB time=00:00:03.60 bitrate=   1.6kbits/s speed=0.106x elapsed=0:00:34.06    \nframe=  225 fps=6.5 q=37.0 size=       1KiB time=00:00:03.73 bitrate=   1.5kbits/s speed=0.108x elapsed=0:00:34.59    \nframe=  225 fps=6.4 q=37.0 size=       1KiB time=00:00:03.73 bitrate=   1.5kbits/s speed=0.106x elapsed=0:00:35.11    \nframe=  233 fps=6.5 q=45.0 size=       1KiB time=00:00:03.86 bitrate=   1.5kbits/s speed=0.108x elapsed=0:00:35.64    \nframe=  241 fps=6.7 q=37.0 size=       1KiB time=00:00:04.00 bitrate=   1.4kbits/s speed=0.111x elapsed=0:00:36.17    \nframe=  241 fps=6.6 q=37.0 size=       1KiB time=00:00:04.00 bitrate=   1.4kbits/s speed=0.109x elapsed=0:00:36.69    \nframe=  249 fps=6.7 q=45.0 size=       1KiB time=00:00:04.13 bitrate=   1.4kbits/s speed=0.111x elapsed=0:00:37.20    \nframe=  257 fps=6.8 q=37.0 size=       1KiB time=00:00:04.26 bitrate=   1.3kbits/s speed=0.113x elapsed=0:00:37.73    \nframe=  257 fps=6.7 q=37.0 size=       1KiB time=00:00:04.26 bitrate=   1.3kbits/s speed=0.112x elapsed=0:00:38.25    \nframe=  265 fps=6.8 q=45.0 size=       1KiB time=00:00:04.40 bitrate=   1.3kbits/s speed=0.114x elapsed=0:00:38.76    \nframe=  273 fps=6.9 q=37.0 size=       1KiB time=00:00:04.53 bitrate=   1.3kbits/s speed=0.115x elapsed=0:00:39.28    \nframe=  273 fps=6.9 q=37.0 size=       1KiB time=00:00:04.53 bitrate=   1.3kbits/s speed=0.114x elapsed=0:00:39.80    \nframe=  281 fps=7.0 q=44.0 size=       1KiB time=00:00:04.66 bitrate=   1.2kbits/s speed=0.116x elapsed=0:00:40.33    \nframe=  293 fps=7.2 q=44.0 size=       1KiB time=00:00:04.86 bitrate=   1.2kbits/s speed=0.119x elapsed=0:00:40.84    \n[out#0/matroska @ 0000027dc4dd9180] video:1184KiB audio:0KiB subtitle:0KiB other streams:0KiB global headers:0KiB muxing overhead: 0.170097%\nframe=  300 fps=7.3 q=51.0 Lsize=    1186KiB time=00:00:04.98 bitrate=1949.4kbits/s speed=0.122x elapsed=0:00:40.95    \n",
  "seconds": 41.48841071128845,
  "probe_out": {}
}